<svg id="svg" version="1.1" xmlns="http://www.w3.org/2000/svg" xmlns:xlink="http://www.w3.org/1999/xlink" width="400" height="400" viewBox="0, 0, 400,400"><g id="svgg"><path id="path0" d="M157.300 0.289 C 156.585 0.378,156.000 0.619,156.000 0.825 C 156.000 1.031,155.280 1.200,154.400 1.200 C 153.520 1.200,152.800 1.380,152.800 1.600 C 152.800 1.820,152.080 2.000,151.200 2.000 C 150.320 2.000,149.600 2.180,149.600 2.400 C 149.600 2.620,148.981 2.800,148.224 2.800 C 147.467 2.800,146.736 2.980,146.600 3.200 C 146.464 3.420,145.733 3.600,144.976 3.600 C 144.219 3.600,143.600 3.780,143.600 4.000 C 143.600 4.220,143.060 4.400,142.400 4.400 C 141.740 4.400,141.200 4.580,141.200 4.800 C 141.200 5.020,140.480 5.200,139.600 5.200 C 138.720 5.200,138.000 5.380,138.000 5.600 C 138.000 5.820,137.280 6.000,136.400 6.000 C 135.520 6.000,134.800 6.180,134.800 6.400 C 134.800 6.620,134.080 6.800,133.200 6.800 C 132.320 6.800,131.600 6.980,131.600 7.200 C 131.600 7.420,130.970 7.600,130.200 7.600 C 129.430 7.600,128.800 7.743,128.800 7.918 C 128.800 8.093,127.675 8.437,126.300 8.682 C 124.925 8.928,123.080 9.317,122.200 9.546 C 118.825 10.426,116.953 10.865,115.696 11.073 C 114.979 11.192,114.294 11.449,114.173 11.644 C 114.052 11.840,113.434 12.000,112.800 12.000 C 112.166 12.000,111.536 12.180,111.400 12.400 C 111.264 12.620,110.533 12.800,109.776 12.800 C 109.019 12.800,108.400 12.980,108.400 13.200 C 108.400 13.420,107.680 13.600,106.800 13.600 C 105.920 13.600,105.200 13.780,105.200 14.000 C 105.200 14.220,104.480 14.400,103.600 14.400 C 102.720 14.400,102.000 14.580,102.000 14.800 C 102.000 15.020,101.471 15.200,100.824 15.200 C 100.177 15.200,99.536 15.380,99.400 15.600 C 99.264 15.820,98.533 16.000,97.776 16.000 C 97.019 16.000,96.400 16.180,96.400 16.400 C 96.400 16.620,95.781 16.800,95.024 16.800 C 94.267 16.800,93.536 16.980,93.400 17.200 C 93.264 17.420,92.533 17.600,91.776 17.600 C 91.019 17.600,90.400 17.780,90.400 18.000 C 90.400 18.220,89.680 18.400,88.800 18.400 C 87.920 18.400,87.200 18.580,87.200 18.800 C 87.200 19.020,86.581 19.200,85.824 19.200 C 85.067 19.200,84.336 19.380,84.200 19.600 C 84.064 19.820,83.423 20.000,82.776 20.000 C 82.129 20.000,81.600 20.180,81.600 20.400 C 81.600 20.620,80.880 20.800,80.000 20.800 C 79.120 20.800,78.400 20.980,78.400 21.200 C 78.400 21.420,77.770 21.600,77.000 21.600 C 76.230 21.600,75.600 21.780,75.600 22.000 C 75.600 22.220,74.880 22.400,74.000 22.400 C 73.120 22.400,72.400 22.580,72.400 22.800 C 72.400 23.020,71.781 23.200,71.024 23.200 C 70.267 23.200,69.536 23.380,69.400 23.600 C 69.264 23.820,68.623 24.000,67.976 24.000 C 67.329 24.000,66.800 24.180,66.800 24.400 C 66.800 24.620,66.215 24.804,65.500 24.810 C 64.785 24.815,63.480 25.007,62.600 25.236 C 57.370 26.599,54.703 27.241,53.300 27.473 C 52.585 27.591,52.000 27.848,52.000 28.044 C 52.000 28.240,51.280 28.400,50.400 28.400 C 49.520 28.400,48.800 28.580,48.800 28.800 C 48.800 29.020,48.181 29.200,47.424 29.200 C 46.667 29.200,45.936 29.380,45.800 29.600 C 45.664 29.820,44.933 30.000,44.176 30.000 C 43.419 30.000,42.800 30.160,42.800 30.356 C 42.800 30.693,42.351 30.810,38.700 31.432 C 37.875 31.573,37.200 31.848,37.200 32.044 C 37.200 32.240,36.480 32.400,35.600 32.400 C 34.720 32.400,34.000 32.580,34.000 32.800 C 34.000 33.020,33.280 33.200,32.400 33.200 C 31.520 33.200,30.800 33.380,30.800 33.600 C 30.800 33.820,30.181 34.000,29.424 34.000 C 28.667 34.000,27.936 34.180,27.800 34.400 C 27.664 34.620,27.203 34.800,26.776 34.800 C 26.009 34.800,26.000 36.741,26.000 200.000 C 26.000 363.259,26.009 365.200,26.776 365.200 C 27.203 365.200,27.664 365.380,27.800 365.600 C 27.936 365.820,28.667 366.000,29.424 366.000 C 30.181 366.000,30.800 366.180,30.800 366.400 C 30.800 366.620,31.520 366.800,32.400 366.800 C 33.280 366.800,34.000 366.980,34.000 367.200 C 34.000 367.420,34.720 367.600,35.600 367.600 C 36.480 367.600,37.200 367.760,37.200 367.956 C 37.200 368.152,37.830 368.422,38.600 368.556 C 39.370 368.690,40.630 368.910,41.400 369.044 C 42.170 369.178,42.800 369.448,42.800 369.644 C 42.800 369.840,43.419 370.000,44.176 370.000 C 44.933 370.000,45.664 370.180,45.800 370.400 C 45.936 370.620,46.667 370.800,47.424 370.800 C 48.181 370.800,48.800 370.980,48.800 371.200 C 48.800 371.420,49.520 371.600,50.400 371.600 C 51.280 371.600,52.000 371.760,52.000 371.956 C 52.000 372.152,52.585 372.409,53.300 372.527 C 54.015 372.646,55.410 372.946,56.400 373.196 C 57.390 373.445,58.740 373.751,59.400 373.875 C 60.060 373.999,60.788 374.249,61.017 374.431 C 61.247 374.612,62.642 374.884,64.117 375.036 C 65.593 375.187,66.800 375.466,66.800 375.655 C 66.800 375.845,67.329 376.000,67.976 376.000 C 68.623 376.000,69.264 376.180,69.400 376.400 C 69.536 376.620,70.267 376.800,71.024 376.800 C 71.781 376.800,72.400 376.980,72.400 377.200 C 72.400 377.420,73.120 377.600,74.000 377.600 C 74.880 377.600,75.600 377.780,75.600 378.000 C 75.600 378.220,76.230 378.400,77.000 378.400 C 77.770 378.400,78.400 378.580,78.400 378.800 C 78.400 379.020,79.120 379.200,80.000 379.200 C 80.880 379.200,81.600 379.380,81.600 379.600 C 81.600 379.820,82.129 380.000,82.776 380.000 C 83.423 380.000,84.064 380.180,84.200 380.400 C 84.336 380.620,85.067 380.800,85.824 380.800 C 86.581 380.800,87.200 380.980,87.200 381.200 C 87.200 381.420,87.920 381.600,88.800 381.600 C 89.680 381.600,90.400 381.780,90.400 382.000 C 90.400 382.220,91.019 382.400,91.776 382.400 C 92.533 382.400,93.264 382.580,93.400 382.800 C 93.536 383.020,94.267 383.200,95.024 383.200 C 95.781 383.200,96.400 383.380,96.400 383.600 C 96.400 383.820,97.019 384.000,97.776 384.000 C 98.533 384.000,99.264 384.180,99.400 384.400 C 99.536 384.620,100.177 384.800,100.824 384.800 C 101.471 384.800,102.000 384.980,102.000 385.200 C 102.000 385.420,102.720 385.600,103.600 385.600 C 104.480 385.600,105.200 385.780,105.200 386.000 C 105.200 386.220,105.920 386.400,106.800 386.400 C 107.680 386.400,108.400 386.580,108.400 386.800 C 108.400 387.020,109.019 387.200,109.776 387.200 C 110.533 387.200,111.264 387.380,111.400 387.600 C 111.536 387.820,112.166 388.000,112.800 388.000 C 113.434 388.000,114.052 388.160,114.173 388.356 C 114.294 388.551,114.979 388.808,115.696 388.927 C 116.413 389.045,117.810 389.346,118.800 389.596 C 119.790 389.845,121.140 390.151,121.800 390.275 C 122.460 390.399,123.182 390.644,123.404 390.820 C 123.626 390.995,124.931 391.266,126.304 391.421 C 127.677 391.576,128.800 391.860,128.800 392.052 C 128.800 392.243,129.430 392.400,130.200 392.400 C 130.970 392.400,131.600 392.580,131.600 392.800 C 131.600 393.020,132.320 393.200,133.200 393.200 C 134.080 393.200,134.800 393.380,134.800 393.600 C 134.800 393.820,135.520 394.000,136.400 394.000 C 137.280 394.000,138.000 394.180,138.000 394.400 C 138.000 394.620,138.720 394.800,139.600 394.800 C 140.480 394.800,141.200 394.980,141.200 395.200 C 141.200 395.420,141.740 395.600,142.400 395.600 C 143.060 395.600,143.600 395.780,143.600 396.000 C 143.600 396.220,144.219 396.400,144.976 396.400 C 145.733 396.400,146.464 396.580,146.600 396.800 C 146.736 397.020,147.467 397.200,148.224 397.200 C 148.981 397.200,149.600 397.380,149.600 397.600 C 149.600 397.820,150.320 398.000,151.200 398.000 C 152.080 398.000,152.800 398.180,152.800 398.400 C 152.800 398.620,153.505 398.800,154.367 398.800 C 155.228 398.800,155.994 398.982,156.068 399.205 C 156.143 399.428,157.688 399.724,159.502 399.864 L 162.800 400.119 162.800 378.326 C 162.800 366.340,162.695 356.428,162.566 356.299 C 162.333 356.066,162.435 64.191,162.683 22.100 L 162.813 0.000 160.707 0.064 C 159.548 0.099,158.015 0.201,157.300 0.289 M150.400 199.933 C 150.400 301.317,150.301 384.366,150.180 384.487 C 150.059 384.608,149.384 384.569,148.680 384.400 C 147.188 384.042,129.419 379.374,119.000 376.603 C 116.800 376.018,112.930 375.001,110.400 374.344 C 107.870 373.686,104.540 372.811,103.000 372.400 C 101.460 371.989,98.040 371.089,95.400 370.400 C 92.760 369.711,89.340 368.816,87.800 368.409 C 79.255 366.156,76.709 365.488,69.600 363.633 C 65.310 362.514,60.180 361.150,58.200 360.602 C 52.014 358.892,40.651 355.919,39.499 355.709 L 38.399 355.509 38.499 200.072 L 38.600 44.636 41.200 43.962 C 42.630 43.592,46.590 42.542,50.000 41.630 C 53.410 40.718,59.260 39.164,63.000 38.178 C 66.740 37.192,71.870 35.834,74.400 35.161 C 76.930 34.488,81.070 33.400,83.600 32.743 C 86.130 32.086,89.460 31.211,91.000 30.800 C 92.540 30.389,95.870 29.514,98.400 28.856 C 100.930 28.198,104.080 27.365,105.400 27.003 C 106.720 26.642,109.780 25.832,112.200 25.203 C 114.620 24.574,118.310 23.609,120.400 23.058 C 122.490 22.507,126.360 21.490,129.000 20.797 C 140.073 17.893,141.556 17.501,144.800 16.621 C 146.670 16.114,148.695 15.677,149.300 15.650 L 150.400 15.600 150.400 199.933 M176.813 40.700 C 176.821 42.437,177.035 43.677,177.413 44.176 C 177.785 44.668,178.000 45.876,178.000 47.474 L 178.000 49.994 204.900 50.097 L 231.800 50.200 232.000 101.600 L 232.200 153.000 235.800 153.258 C 237.780 153.399,240.435 153.534,241.700 153.558 L 244.000 153.600 244.000 95.800 L 244.000 38.000 210.400 38.000 L 176.800 38.000 176.813 40.700 M178.270 64.263 C 178.122 64.412,178.000 65.663,178.000 67.043 C 178.000 68.423,177.820 69.664,177.600 69.800 C 176.991 70.176,177.084 75.594,177.700 75.626 C 177.975 75.640,184.500 75.685,192.200 75.726 L 206.200 75.800 206.302 114.511 L 206.404 153.222 212.102 153.111 L 217.800 153.000 217.800 108.600 L 217.800 64.200 198.170 64.096 C 187.374 64.039,178.419 64.114,178.270 64.263 M267.600 147.590 L 267.600 168.381 252.700 168.603 C 244.505 168.726,224.253 168.865,207.695 168.913 C 179.023 168.996,177.579 169.034,177.360 169.725 C 176.964 170.972,177.656 180.741,178.150 180.876 C 178.398 180.944,201.505 180.953,229.500 180.895 L 280.400 180.791 280.400 166.419 C 280.400 158.515,280.537 151.962,280.705 151.859 C 280.872 151.755,283.167 153.304,285.805 155.301 C 299.820 165.911,307.327 171.606,310.200 173.805 C 314.997 177.477,321.432 182.370,328.800 187.947 C 336.117 193.487,345.342 200.495,350.118 204.141 C 351.832 205.450,353.182 206.754,353.118 207.038 C 353.053 207.322,349.220 210.411,344.600 213.902 C 339.980 217.394,333.140 222.585,329.400 225.439 C 321.134 231.745,306.077 243.188,293.200 252.949 C 290.010 255.367,285.912 258.489,284.092 259.885 C 280.033 263.002,280.422 264.305,280.301 247.200 L 280.200 233.000 229.222 232.898 C 201.183 232.843,178.113 232.933,177.954 233.098 C 177.795 233.264,177.606 235.920,177.533 239.000 L 177.400 244.600 207.766 244.600 C 231.702 244.600,238.167 244.706,238.299 245.100 C 238.429 245.488,241.736 245.600,253.033 245.600 L 267.600 245.600 267.600 266.400 L 267.600 287.200 268.525 287.200 C 269.033 287.200,269.804 286.885,270.238 286.500 C 270.673 286.115,271.832 285.177,272.814 284.415 C 273.796 283.653,274.660 282.888,274.733 282.715 C 274.807 282.542,275.049 282.400,275.273 282.400 C 275.496 282.400,276.183 281.860,276.800 281.200 C 277.417 280.540,278.137 280.000,278.400 280.000 C 278.663 280.000,279.383 279.460,280.000 278.800 C 280.617 278.140,281.337 277.600,281.600 277.600 C 281.863 277.600,282.583 277.060,283.200 276.400 C 283.817 275.740,284.598 275.200,284.937 275.200 C 285.276 275.200,285.662 275.024,285.795 274.809 C 285.928 274.594,287.423 273.379,289.117 272.109 C 290.811 270.839,292.720 269.305,293.358 268.700 C 293.996 268.095,294.690 267.600,294.899 267.600 C 295.108 267.600,295.783 267.060,296.400 266.400 C 297.017 265.740,297.737 265.200,298.000 265.200 C 298.263 265.200,298.983 264.660,299.600 264.000 C 300.217 263.340,300.937 262.800,301.200 262.800 C 301.463 262.800,302.183 262.260,302.800 261.600 C 303.417 260.940,304.085 260.400,304.285 260.400 C 304.485 260.400,304.998 260.085,305.425 259.700 C 305.852 259.315,306.921 258.465,307.800 257.812 C 308.680 257.159,309.749 256.304,310.175 255.912 C 310.602 255.520,311.099 255.200,311.279 255.200 C 311.460 255.200,312.172 254.660,312.863 254.000 C 313.554 253.340,314.290 252.800,314.499 252.800 C 314.708 252.800,315.383 252.260,316.000 251.600 C 316.617 250.940,317.337 250.400,317.600 250.400 C 317.863 250.400,318.583 249.860,319.200 249.200 C 319.817 248.540,320.492 248.000,320.701 248.000 C 320.910 248.000,321.646 247.460,322.337 246.800 C 323.028 246.140,323.702 245.600,323.836 245.600 C 323.970 245.600,324.583 245.060,325.200 244.400 C 325.817 243.740,326.543 243.200,326.814 243.200 C 327.084 243.200,327.597 242.876,327.953 242.479 C 328.309 242.083,329.292 241.338,330.138 240.823 C 330.984 240.309,332.100 239.463,332.620 238.944 C 333.139 238.425,333.725 238.000,333.922 238.000 C 334.120 238.000,334.846 237.460,335.537 236.800 C 336.228 236.140,336.948 235.600,337.137 235.600 C 337.326 235.600,338.046 235.060,338.737 234.400 C 339.428 233.740,340.102 233.200,340.236 233.200 C 340.370 233.200,340.983 232.660,341.600 232.000 C 342.217 231.340,342.937 230.800,343.200 230.800 C 343.463 230.800,344.183 230.260,344.800 229.600 C 345.417 228.940,346.137 228.400,346.400 228.400 C 346.663 228.400,347.383 227.860,348.000 227.200 C 348.617 226.540,349.319 226.000,349.560 226.000 C 349.802 226.000,350.000 225.820,350.000 225.600 C 350.000 225.380,350.227 225.200,350.504 225.200 C 350.781 225.200,351.493 224.750,352.087 224.200 C 352.680 223.650,353.308 223.199,353.483 223.198 C 353.657 223.197,354.375 222.657,355.078 221.998 C 355.781 221.339,356.482 220.800,356.635 220.800 C 356.788 220.800,357.429 220.260,358.060 219.600 C 358.691 218.940,359.403 218.400,359.643 218.400 C 359.883 218.400,360.583 217.860,361.200 217.200 C 361.817 216.540,362.537 216.000,362.800 216.000 C 363.063 216.000,363.783 215.460,364.400 214.800 C 365.017 214.140,365.692 213.600,365.901 213.600 C 366.110 213.600,366.846 213.060,367.537 212.400 C 368.228 211.740,368.974 211.200,369.196 211.200 C 369.418 211.200,369.600 211.020,369.600 210.800 C 369.600 210.580,369.804 210.400,370.053 210.400 C 370.302 210.400,370.797 210.080,371.153 209.690 C 371.509 209.299,372.295 208.665,372.900 208.280 C 374.397 207.329,374.071 205.200,372.429 205.200 C 372.193 205.200,372.000 205.020,372.000 204.800 C 372.000 204.580,371.818 204.400,371.596 204.400 C 371.374 204.400,370.628 203.860,369.937 203.200 C 369.246 202.540,368.510 202.000,368.301 202.000 C 368.092 202.000,367.417 201.460,366.800 200.800 C 366.183 200.140,365.463 199.600,365.200 199.600 C 364.937 199.600,364.217 199.060,363.600 198.400 C 362.983 197.740,362.275 197.200,362.026 197.200 C 361.777 197.200,360.963 196.615,360.217 195.900 C 358.699 194.446,355.464 192.000,355.057 192.000 C 354.912 192.000,354.228 191.460,353.537 190.800 C 352.846 190.140,352.110 189.600,351.901 189.600 C 351.692 189.600,351.017 189.060,350.400 188.400 C 349.783 187.740,349.063 187.200,348.800 187.200 C 348.537 187.200,347.817 186.660,347.200 186.000 C 346.583 185.340,345.863 184.800,345.600 184.800 C 345.337 184.800,344.617 184.260,344.000 183.600 C 343.383 182.940,342.697 182.400,342.474 182.400 C 342.251 182.400,341.449 181.815,340.692 181.100 C 339.008 179.511,338.402 179.028,335.600 177.038 C 334.390 176.179,333.340 175.324,333.267 175.138 C 333.193 174.952,332.861 174.800,332.527 174.800 C 332.194 174.800,331.417 174.260,330.800 173.600 C 330.183 172.940,329.463 172.400,329.200 172.400 C 328.937 172.400,328.217 171.860,327.600 171.200 C 326.983 170.540,326.283 170.000,326.043 170.000 C 325.803 170.000,325.091 169.460,324.460 168.800 C 323.829 168.140,323.174 167.600,323.004 167.600 C 322.833 167.600,322.403 167.276,322.047 166.881 C 321.691 166.486,320.770 165.729,320.000 165.200 C 319.230 164.671,318.309 163.914,317.953 163.519 C 317.597 163.124,317.137 162.800,316.931 162.800 C 316.725 162.800,315.869 162.170,315.028 161.400 C 314.187 160.630,313.370 160.000,313.211 160.000 C 312.958 160.000,312.325 159.532,310.517 158.007 C 310.251 157.783,309.848 157.600,309.620 157.600 C 309.393 157.600,308.691 157.060,308.060 156.400 C 307.429 155.740,306.780 155.200,306.617 155.200 C 306.454 155.200,305.817 154.660,305.200 154.000 C 304.583 153.340,303.863 152.800,303.600 152.800 C 303.337 152.800,302.617 152.260,302.000 151.600 C 301.383 150.940,300.708 150.400,300.499 150.400 C 300.290 150.400,299.554 149.860,298.863 149.200 C 298.172 148.540,297.461 148.000,297.282 148.000 C 297.103 148.000,296.269 147.370,295.428 146.600 C 294.587 145.830,293.761 145.200,293.592 145.200 C 293.423 145.200,292.707 144.660,292.000 144.000 C 291.293 143.340,290.581 142.800,290.417 142.800 C 290.253 142.800,289.554 142.260,288.863 141.600 C 288.172 140.940,287.408 140.400,287.164 140.400 C 286.920 140.400,286.217 139.860,285.600 139.200 C 284.983 138.540,284.263 138.000,284.000 138.000 C 283.737 138.000,283.017 137.460,282.400 136.800 C 281.783 136.140,281.116 135.600,280.918 135.600 C 280.719 135.600,279.869 134.970,279.028 134.200 C 278.187 133.430,277.361 132.800,277.192 132.800 C 277.023 132.800,276.348 132.305,275.692 131.700 C 273.974 130.115,272.361 128.847,271.100 128.089 C 270.495 127.725,270.000 127.286,270.000 127.114 C 270.000 126.941,269.460 126.800,268.800 126.800 L 267.600 126.800 267.600 147.590 M109.770 180.349 C 104.400 182.181,99.960 186.095,97.466 191.193 L 95.800 194.600 95.800 200.000 C 95.800 225.515,131.704 228.070,136.436 202.892 C 139.085 188.798,123.534 175.651,109.770 180.349 M120.534 192.140 C 128.627 196.883,125.503 208.934,116.166 208.985 C 112.854 209.003,111.664 208.511,109.384 206.185 C 102.158 198.816,111.609 186.910,120.534 192.140 M238.414 260.183 C 238.092 260.571,236.969 260.806,235.065 260.883 L 232.200 261.000 232.000 305.400 L 231.800 349.800 204.900 349.903 L 178.000 350.006 177.986 352.503 C 177.978 353.909,177.722 355.437,177.400 356.000 C 177.078 356.563,176.822 358.092,176.814 359.500 L 176.800 362.000 210.400 362.000 L 244.000 362.000 244.000 310.800 L 244.000 259.600 241.449 259.600 C 239.702 259.600,238.745 259.784,238.414 260.183 M206.302 292.489 L 206.200 324.200 192.063 324.257 C 183.274 324.293,177.775 324.465,177.527 324.713 C 177.137 325.103,177.220 327.009,177.888 333.000 L 178.200 335.800 198.000 335.800 L 217.800 335.800 217.800 298.400 L 217.800 261.000 212.102 260.889 L 206.405 260.778 206.302 292.489 " stroke="none" fill="#0e1012" fill-rule="evenodd"></path><path id="path1" d="M147.400 16.019 C 146.842 16.271,147.085 16.307,148.200 16.138 C 149.080 16.004,149.875 15.828,149.967 15.747 C 150.310 15.444,148.168 15.671,147.400 16.019 M144.400 16.800 C 143.605 17.314,144.604 17.314,145.800 16.800 L 146.600 16.456 145.800 16.434 C 145.360 16.422,144.730 16.587,144.400 16.800 M141.200 17.600 C 140.405 18.114,141.404 18.114,142.600 17.600 L 143.400 17.256 142.600 17.234 C 142.160 17.222,141.530 17.387,141.200 17.600 M138.400 18.400 C 137.867 18.745,137.867 18.788,138.400 18.788 C 138.730 18.788,139.270 18.613,139.600 18.400 C 140.133 18.055,140.133 18.012,139.600 18.012 C 139.270 18.012,138.730 18.187,138.400 18.400 M135.200 19.200 C 134.667 19.545,134.667 19.588,135.200 19.588 C 135.530 19.588,136.070 19.413,136.400 19.200 C 136.933 18.855,136.933 18.812,136.400 18.812 C 136.070 18.812,135.530 18.987,135.200 19.200 M132.400 20.000 C 131.867 20.345,131.867 20.388,132.400 20.388 C 132.730 20.388,133.270 20.213,133.600 20.000 C 134.133 19.655,134.133 19.612,133.600 19.612 C 133.270 19.612,132.730 19.787,132.400 20.000 M129.200 20.800 C 128.667 21.145,128.667 21.188,129.200 21.188 C 129.530 21.188,130.070 21.013,130.400 20.800 C 130.933 20.455,130.933 20.412,130.400 20.412 C 130.070 20.412,129.530 20.587,129.200 20.800 M126.400 21.600 C 125.867 21.945,125.867 21.988,126.400 21.988 C 126.730 21.988,127.270 21.813,127.600 21.600 C 128.133 21.255,128.133 21.212,127.600 21.212 C 127.270 21.212,126.730 21.387,126.400 21.600 M123.200 22.400 C 122.667 22.745,122.667 22.788,123.200 22.788 C 123.530 22.788,124.070 22.613,124.400 22.400 C 124.933 22.055,124.933 22.012,124.400 22.012 C 124.070 22.012,123.530 22.187,123.200 22.400 M117.200 24.000 C 116.667 24.345,116.667 24.388,117.200 24.388 C 117.530 24.388,118.070 24.213,118.400 24.000 C 118.933 23.655,118.933 23.612,118.400 23.612 C 118.070 23.612,117.530 23.787,117.200 24.000 M111.200 25.600 C 110.667 25.945,110.667 25.988,111.200 25.988 C 111.530 25.988,112.070 25.813,112.400 25.600 C 112.933 25.255,112.933 25.212,112.400 25.212 C 112.070 25.212,111.530 25.387,111.200 25.600 M108.000 26.400 C 107.467 26.745,107.467 26.788,108.000 26.788 C 108.330 26.788,108.870 26.613,109.200 26.400 C 109.733 26.055,109.733 26.012,109.200 26.012 C 108.870 26.012,108.330 26.187,108.000 26.400 M99.200 28.800 C 98.667 29.145,98.667 29.188,99.200 29.188 C 99.530 29.188,100.070 29.013,100.400 28.800 C 100.933 28.455,100.933 28.412,100.400 28.412 C 100.070 28.412,99.530 28.587,99.200 28.800 M94.200 30.000 C 92.880 30.404,92.070 30.747,92.400 30.762 C 92.730 30.777,94.080 30.448,95.400 30.031 C 96.720 29.614,97.530 29.271,97.200 29.269 C 96.870 29.267,95.520 29.596,94.200 30.000 M88.000 31.600 C 87.205 32.114,88.204 32.114,89.400 31.600 L 90.200 31.256 89.400 31.234 C 88.960 31.222,88.330 31.387,88.000 31.600 M85.200 32.418 C 84.762 32.715,84.924 32.752,85.800 32.556 C 87.271 32.227,87.590 31.998,86.567 32.006 C 86.145 32.009,85.530 32.195,85.200 32.418 M82.200 33.200 C 81.181 33.638,82.232 33.638,83.600 33.200 C 84.404 32.943,84.443 32.877,83.800 32.868 C 83.360 32.862,82.640 33.011,82.200 33.200 M78.800 34.000 C 78.005 34.514,79.004 34.514,80.200 34.000 L 81.000 33.656 80.200 33.634 C 79.760 33.622,79.130 33.787,78.800 34.000 M76.000 34.800 C 75.467 35.145,75.467 35.188,76.000 35.188 C 76.330 35.188,76.870 35.013,77.200 34.800 C 77.733 34.455,77.733 34.412,77.200 34.412 C 76.870 34.412,76.330 34.587,76.000 34.800 M72.800 35.600 C 72.005 36.114,73.004 36.114,74.200 35.600 L 75.000 35.256 74.200 35.234 C 73.760 35.222,73.130 35.387,72.800 35.600 M70.000 36.400 C 69.467 36.745,69.467 36.788,70.000 36.788 C 70.330 36.788,70.870 36.613,71.200 36.400 C 71.733 36.055,71.733 36.012,71.200 36.012 C 70.870 36.012,70.330 36.187,70.000 36.400 M67.000 37.200 L 66.200 37.544 67.000 37.566 C 67.440 37.578,68.070 37.413,68.400 37.200 C 69.195 36.686,68.196 36.686,67.000 37.200 M64.000 38.000 C 63.467 38.345,63.467 38.388,64.000 38.388 C 64.330 38.388,64.870 38.213,65.200 38.000 C 65.733 37.655,65.733 37.612,65.200 37.612 C 64.870 37.612,64.330 37.787,64.000 38.000 M60.800 38.800 C 60.267 39.145,60.267 39.188,60.800 39.188 C 61.130 39.188,61.670 39.013,62.000 38.800 C 62.533 38.455,62.533 38.412,62.000 38.412 C 61.670 38.412,61.130 38.587,60.800 38.800 M58.000 39.600 C 57.467 39.945,57.467 39.988,58.000 39.988 C 58.330 39.988,58.870 39.813,59.200 39.600 C 59.733 39.255,59.733 39.212,59.200 39.212 C 58.870 39.212,58.330 39.387,58.000 39.600 M50.000 41.628 C 46.810 42.486,42.940 43.513,41.400 43.910 L 38.600 44.631 38.499 200.070 L 38.399 355.509 39.499 355.709 C 40.105 355.819,43.750 356.738,47.600 357.751 C 57.203 360.278,56.752 360.184,55.900 359.486 C 55.235 358.941,55.200 350.859,55.200 200.000 C 55.200 49.125,55.235 41.061,55.900 40.557 C 56.887 39.808,56.505 39.877,50.000 41.628 M280.663 151.870 C 280.518 152.015,280.400 158.581,280.400 166.462 L 280.400 180.791 229.500 180.895 C 201.505 180.953,178.383 180.939,178.117 180.864 C 177.812 180.778,177.591 179.672,177.517 177.864 L 177.400 175.000 169.900 174.891 L 162.400 174.782 162.400 206.591 L 162.400 238.400 169.982 238.400 L 177.563 238.400 177.682 235.700 L 177.800 233.000 229.000 233.000 L 280.200 233.000 280.301 247.200 C 280.422 264.305,280.033 263.002,284.092 259.885 C 285.912 258.489,290.010 255.367,293.200 252.949 C 306.077 243.188,321.134 231.745,329.400 225.439 C 333.140 222.585,339.980 217.394,344.600 213.902 C 349.220 210.411,353.053 207.322,353.118 207.038 C 353.182 206.754,351.832 205.450,350.118 204.141 C 345.342 200.495,336.117 193.487,328.800 187.947 C 321.805 182.652,315.949 178.199,309.400 173.197 C 305.204 169.992,295.262 162.456,286.800 156.067 C 284.050 153.990,281.603 152.137,281.363 151.949 C 281.123 151.761,280.808 151.725,280.663 151.870 M221.200 206.600 L 221.200 212.400 215.400 212.400 L 209.600 212.400 209.600 206.600 L 209.600 200.800 215.400 200.800 L 221.200 200.800 221.200 206.600 M240.800 206.600 L 240.800 212.400 235.000 212.400 L 229.200 212.400 229.200 206.600 L 229.200 200.800 235.000 200.800 L 240.800 200.800 240.800 206.600 M60.800 361.200 C 61.130 361.413,61.670 361.588,62.000 361.588 C 62.533 361.588,62.533 361.545,62.000 361.200 C 61.670 360.987,61.130 360.812,60.800 360.812 C 60.267 360.812,60.267 360.855,60.800 361.200 M66.800 362.800 C 67.130 363.013,67.670 363.188,68.000 363.188 C 68.533 363.188,68.533 363.145,68.000 362.800 C 67.670 362.587,67.130 362.412,66.800 362.412 C 66.267 362.412,66.267 362.455,66.800 362.800 M72.800 364.400 C 73.130 364.613,73.670 364.788,74.000 364.788 C 74.533 364.788,74.533 364.745,74.000 364.400 C 73.670 364.187,73.130 364.012,72.800 364.012 C 72.267 364.012,72.267 364.055,72.800 364.400 M76.000 365.200 C 76.330 365.413,76.870 365.588,77.200 365.588 C 77.733 365.588,77.733 365.545,77.200 365.200 C 76.870 364.987,76.330 364.812,76.000 364.812 C 75.467 364.812,75.467 364.855,76.000 365.200 M78.800 366.000 C 79.130 366.213,79.670 366.388,80.000 366.388 C 80.533 366.388,80.533 366.345,80.000 366.000 C 79.670 365.787,79.130 365.612,78.800 365.612 C 78.267 365.612,78.267 365.655,78.800 366.000 M81.800 366.800 C 82.240 366.989,82.960 367.144,83.400 367.144 L 84.200 367.144 83.400 366.800 C 82.960 366.611,82.240 366.456,81.800 366.456 L 81.000 366.456 81.800 366.800 M84.800 367.600 C 85.130 367.813,85.760 367.978,86.200 367.966 L 87.000 367.944 86.200 367.600 C 85.004 367.086,84.005 367.086,84.800 367.600 M88.000 368.400 C 88.330 368.613,88.870 368.788,89.200 368.788 C 89.733 368.788,89.733 368.745,89.200 368.400 C 88.870 368.187,88.330 368.012,88.000 368.012 C 87.467 368.012,87.467 368.055,88.000 368.400 M92.600 369.605 C 93.920 370.036,95.270 370.374,95.600 370.355 C 96.342 370.313,93.484 369.391,91.591 369.062 C 90.826 368.929,91.280 369.173,92.600 369.605 M100.400 371.629 C 101.830 372.051,103.180 372.381,103.400 372.362 C 104.008 372.309,99.088 370.807,98.400 370.836 C 98.070 370.850,98.970 371.207,100.400 371.629 M104.800 372.800 C 106.168 373.238,107.219 373.238,106.200 372.800 C 105.760 372.611,105.040 372.462,104.600 372.468 C 103.957 372.477,103.996 372.543,104.800 372.800 M108.000 373.600 C 108.330 373.813,108.870 373.988,109.200 373.988 C 109.733 373.988,109.733 373.945,109.200 373.600 C 108.870 373.387,108.330 373.212,108.000 373.212 C 107.467 373.212,107.467 373.255,108.000 373.600 M111.000 374.400 C 111.440 374.589,112.070 374.744,112.400 374.744 C 112.778 374.744,112.704 374.617,112.200 374.400 C 111.760 374.211,111.130 374.056,110.800 374.056 C 110.422 374.056,110.496 374.183,111.000 374.400 M117.200 376.000 C 117.530 376.213,118.070 376.388,118.400 376.388 C 118.933 376.388,118.933 376.345,118.400 376.000 C 118.070 375.787,117.530 375.612,117.200 375.612 C 116.667 375.612,116.667 375.655,117.200 376.000 M120.000 376.800 C 120.330 377.013,120.870 377.188,121.200 377.188 C 121.733 377.188,121.733 377.145,121.200 376.800 C 120.870 376.587,120.330 376.412,120.000 376.412 C 119.467 376.412,119.467 376.455,120.000 376.800 M123.200 377.600 C 123.530 377.813,124.070 377.988,124.400 377.988 C 124.933 377.988,124.933 377.945,124.400 377.600 C 124.070 377.387,123.530 377.212,123.200 377.212 C 122.667 377.212,122.667 377.255,123.200 377.600 M126.200 378.400 C 127.301 378.873,127.692 378.873,127.400 378.400 C 127.264 378.180,126.758 378.013,126.276 378.028 C 125.431 378.055,125.429 378.069,126.200 378.400 M129.200 379.200 C 129.530 379.413,130.070 379.588,130.400 379.588 C 130.933 379.588,130.933 379.545,130.400 379.200 C 130.070 378.987,129.530 378.812,129.200 378.812 C 128.667 378.812,128.667 378.855,129.200 379.200 M135.200 380.800 C 135.530 381.013,136.070 381.188,136.400 381.188 C 136.933 381.188,136.933 381.145,136.400 380.800 C 136.070 380.587,135.530 380.412,135.200 380.412 C 134.667 380.412,134.667 380.455,135.200 380.800 M138.000 381.600 C 138.330 381.813,138.960 381.988,139.400 381.988 C 140.062 381.988,140.097 381.921,139.600 381.600 C 139.270 381.387,138.640 381.212,138.200 381.212 C 137.538 381.212,137.503 381.279,138.000 381.600 M141.200 382.400 C 141.530 382.613,142.070 382.788,142.400 382.788 C 142.933 382.788,142.933 382.745,142.400 382.400 C 142.070 382.187,141.530 382.012,141.200 382.012 C 140.667 382.012,140.667 382.055,141.200 382.400 M144.400 383.200 C 144.730 383.413,145.270 383.588,145.600 383.588 C 146.133 383.588,146.133 383.545,145.600 383.200 C 145.270 382.987,144.730 382.812,144.400 382.812 C 143.867 382.812,143.867 382.855,144.400 383.200 M147.200 384.000 C 147.530 384.213,148.160 384.378,148.600 384.366 L 149.400 384.344 148.600 384.000 C 147.404 383.486,146.405 383.486,147.200 384.000 " stroke="none" fill="#cb4f6a" fill-rule="evenodd"></path><path id="path2" d="M143.800 17.280 C 141.380 17.937,138.770 18.626,138.000 18.811 C 137.230 18.996,135.880 19.351,135.000 19.600 C 134.120 19.849,132.770 20.209,132.000 20.400 C 131.230 20.591,129.880 20.951,129.000 21.200 C 128.120 21.449,126.680 21.829,125.800 22.045 C 123.036 22.722,121.452 23.132,119.800 23.600 C 118.920 23.849,117.570 24.209,116.800 24.400 C 116.030 24.591,114.680 24.951,113.800 25.200 C 112.920 25.449,111.570 25.807,110.800 25.995 C 109.206 26.384,103.693 27.858,101.600 28.454 C 100.830 28.674,99.570 28.997,98.800 29.173 C 98.030 29.349,94.880 30.164,91.800 30.984 C 88.720 31.804,84.130 33.012,81.600 33.668 C 75.894 35.147,71.434 36.332,69.600 36.854 C 68.830 37.074,67.480 37.429,66.600 37.645 C 63.818 38.326,62.248 38.733,60.600 39.201 C 59.720 39.451,58.550 39.747,58.000 39.858 C 57.450 39.969,56.595 40.257,56.100 40.498 L 55.200 40.935 55.200 200.000 L 55.200 359.065 56.100 359.487 C 56.595 359.719,57.765 360.109,58.700 360.354 C 59.635 360.599,61.165 361.004,62.100 361.254 C 63.035 361.504,64.385 361.864,65.100 362.054 C 65.815 362.244,66.998 362.580,67.728 362.800 C 68.459 363.020,69.438 363.200,69.905 363.200 C 70.371 363.200,70.852 363.360,70.973 363.556 C 71.094 363.751,71.779 364.008,72.496 364.127 C 73.900 364.359,76.047 364.877,78.600 365.600 C 79.480 365.849,80.830 366.198,81.600 366.374 C 82.370 366.551,84.440 367.089,86.200 367.570 C 87.960 368.050,92.190 369.165,95.600 370.048 C 101.781 371.647,106.709 372.942,112.400 374.462 C 114.050 374.903,116.030 375.417,116.800 375.605 C 117.570 375.793,118.920 376.151,119.800 376.400 C 121.938 377.006,123.940 377.511,125.400 377.812 C 126.060 377.949,126.960 378.213,127.400 378.400 C 127.840 378.587,128.695 378.843,129.300 378.970 C 129.905 379.096,130.895 379.304,131.500 379.430 C 132.105 379.557,132.960 379.813,133.400 380.000 C 133.840 380.187,134.740 380.451,135.400 380.588 C 136.860 380.889,138.862 381.394,141.000 382.000 C 141.880 382.249,143.230 382.604,144.000 382.788 C 144.770 382.973,146.342 383.384,147.494 383.702 C 148.645 384.019,149.680 384.187,149.794 384.073 C 149.907 383.960,150.000 301.097,150.000 199.933 L 150.000 16.000 149.100 16.042 C 148.605 16.066,146.220 16.623,143.800 17.280 M119.400 179.351 C 126.649 180.773,132.085 184.925,134.918 191.200 C 142.727 208.502,125.980 226.385,108.400 219.516 C 91.027 212.727,90.768 187.567,108.000 180.614 C 112.084 178.966,115.508 178.587,119.400 179.351 " stroke="none" fill="#fbeb6c" fill-rule="evenodd"></path><path id="path3" d="M162.800 56.191 L 162.800 69.200 169.982 69.200 L 177.163 69.200 177.282 66.500 L 177.400 63.800 197.800 63.800 L 218.200 63.800 218.302 108.482 L 218.403 153.165 215.502 153.282 L 212.600 153.400 212.600 161.000 L 212.600 168.600 224.400 168.716 C 230.890 168.780,236.785 168.726,237.500 168.598 L 238.800 168.364 238.800 161.032 L 238.800 153.700 237.550 153.450 C 236.863 153.313,235.243 153.200,233.952 153.200 L 231.603 153.200 231.502 102.100 L 231.400 51.000 204.400 50.793 C 189.550 50.679,177.362 50.544,177.316 50.493 C 177.269 50.442,177.179 48.825,177.116 46.900 L 177.000 43.400 169.900 43.291 L 162.800 43.182 162.800 56.191 M111.921 192.254 C 110.518 192.995,108.000 195.945,108.000 196.848 C 108.000 197.236,107.820 197.664,107.600 197.800 C 107.380 197.936,107.200 198.926,107.200 200.000 C 107.200 201.074,107.380 202.064,107.600 202.200 C 107.820 202.336,108.000 202.764,108.000 203.152 C 108.000 205.625,112.229 208.400,116.000 208.400 C 125.280 208.400,127.939 196.702,119.705 192.100 C 118.502 191.427,113.293 191.530,111.921 192.254 M209.600 206.600 L 209.600 212.400 215.400 212.400 L 221.200 212.400 221.200 206.600 L 221.200 200.800 215.400 200.800 L 209.600 200.800 209.600 206.600 M229.200 206.600 L 229.200 212.400 235.000 212.400 L 240.800 212.400 240.800 206.600 L 240.800 200.800 235.000 200.800 L 229.200 200.800 229.200 206.600 M212.578 245.313 C 212.469 245.596,212.430 249.061,212.490 253.013 L 212.600 260.200 215.400 260.400 L 218.200 260.600 218.200 298.400 L 218.200 336.200 198.400 336.400 C 175.707 336.629,177.200 336.841,177.200 333.386 L 177.200 330.800 170.000 330.800 L 162.800 330.800 162.800 343.809 L 162.800 356.818 169.900 356.709 L 177.000 356.600 177.116 353.336 C 177.189 351.266,177.422 349.914,177.753 349.639 C 178.113 349.340,186.505 349.174,204.838 349.103 L 231.400 349.000 231.600 304.800 L 231.800 260.600 234.800 260.400 C 239.047 260.117,238.800 260.592,238.797 252.676 L 238.794 245.800 237.717 245.300 C 236.145 244.570,212.858 244.582,212.578 245.313 " stroke="none" fill="#e0e9f2" fill-rule="evenodd"></path><path id="path4" d="M150.000 200.080 C 149.890 301.654,149.935 384.625,150.100 384.460 C 150.266 384.294,150.356 301.188,150.300 199.780 L 150.200 15.400 150.000 200.080 M162.359 44.000 C 162.227 44.330,162.207 73.895,162.314 109.700 L 162.510 174.800 169.855 174.800 L 177.200 174.800 177.200 172.433 C 177.200 171.131,177.292 169.826,177.404 169.533 C 177.572 169.094,182.880 169.021,207.410 169.117 C 223.800 169.181,237.466 169.091,237.778 168.917 C 238.090 168.743,232.552 168.600,225.472 168.600 L 212.600 168.600 212.600 160.900 L 212.600 153.200 209.502 153.200 L 206.404 153.200 206.302 114.500 L 206.200 75.800 192.200 75.726 C 184.500 75.685,177.975 75.640,177.700 75.626 C 177.097 75.595,176.988 70.372,177.579 69.780 C 177.787 69.571,178.012 68.230,178.079 66.800 L 178.200 64.200 198.000 64.200 L 217.800 64.200 217.800 108.700 C 217.800 133.175,217.936 153.200,218.102 153.200 C 218.268 153.200,218.358 133.085,218.302 108.500 L 218.200 63.800 197.800 63.800 L 177.400 63.800 177.282 66.500 L 177.163 69.200 169.987 69.200 L 162.811 69.200 162.706 56.300 C 162.647 49.205,162.492 43.670,162.359 44.000 M177.206 47.100 C 177.203 48.915,177.245 50.442,177.300 50.493 C 177.355 50.544,189.550 50.679,204.400 50.793 L 231.400 51.000 231.502 102.100 C 231.557 130.205,231.737 153.200,231.902 153.200 C 232.066 153.200,232.110 130.025,232.000 101.700 L 231.800 50.200 204.900 50.097 L 178.000 49.994 177.994 47.497 C 177.991 46.124,177.813 44.730,177.600 44.400 C 177.332 43.986,177.210 44.822,177.206 47.100 M114.200 179.226 C 112.986 179.424,113.412 179.500,115.967 179.543 C 117.818 179.574,119.258 179.535,119.167 179.455 C 118.789 179.126,115.690 178.984,114.200 179.226 M109.600 180.000 C 108.805 180.514,109.804 180.514,111.000 180.000 L 111.800 179.656 111.000 179.634 C 110.560 179.622,109.930 179.787,109.600 180.000 M120.433 179.742 C 120.749 180.011,124.400 181.151,124.400 180.981 C 124.400 180.712,121.569 179.600,120.884 179.600 C 120.545 179.600,120.342 179.664,120.433 179.742 M106.103 181.571 C 103.848 182.814,100.634 185.475,99.650 186.914 C 99.316 187.401,100.209 186.720,101.634 185.400 C 103.059 184.080,105.300 182.420,106.613 181.711 C 107.926 181.002,108.820 180.420,108.600 180.418 C 108.380 180.416,107.256 180.935,106.103 181.571 M127.038 182.730 C 128.337 183.571,130.374 185.326,131.565 186.630 C 132.756 187.933,133.535 188.640,133.297 188.200 C 132.176 186.132,126.373 181.200,125.060 181.200 C 124.849 181.200,125.739 181.888,127.038 182.730 M97.381 190.437 C 97.029 191.118,96.812 191.745,96.899 191.832 C 96.986 191.919,97.356 191.362,97.722 190.595 C 98.544 188.870,98.259 188.738,97.381 190.437 M113.099 191.347 C 103.228 195.026,105.665 209.041,116.166 208.985 C 125.503 208.934,128.627 196.883,120.534 192.140 C 118.443 190.915,115.189 190.568,113.099 191.347 M119.705 192.100 C 127.939 196.702,125.280 208.400,116.000 208.400 C 112.229 208.400,108.000 205.625,108.000 203.152 C 108.000 202.764,107.820 202.336,107.600 202.200 C 107.380 202.064,107.200 201.074,107.200 200.000 C 107.200 198.926,107.380 197.936,107.600 197.800 C 107.820 197.664,108.000 197.236,108.000 196.848 C 108.000 193.378,116.108 190.089,119.705 192.100 M95.443 195.433 C 95.099 196.329,95.152 204.106,95.506 204.662 C 95.668 204.916,95.800 202.801,95.800 199.962 C 95.800 197.123,95.774 194.800,95.743 194.800 C 95.711 194.800,95.576 195.085,95.443 195.433 M136.250 196.400 C 136.575 198.641,136.802 198.960,136.794 197.167 C 136.791 196.415,136.608 195.530,136.388 195.200 C 136.109 194.781,136.067 195.142,136.250 196.400 M136.454 202.600 C 136.419 203.040,136.289 203.850,136.167 204.400 C 135.975 205.263,136.007 205.303,136.398 204.690 C 136.647 204.299,136.777 203.489,136.686 202.890 C 136.578 202.179,136.497 202.079,136.454 202.600 M96.018 206.325 C 95.991 207.118,98.049 211.148,98.769 211.708 C 99.312 212.131,99.331 212.111,98.905 211.565 C 98.632 211.215,97.876 209.775,97.223 208.365 C 96.571 206.954,96.028 206.036,96.018 206.325 M135.400 206.800 C 135.250 207.273,135.217 207.750,135.327 207.860 C 135.437 207.970,135.650 207.673,135.800 207.200 C 135.950 206.727,135.983 206.250,135.873 206.140 C 135.763 206.030,135.550 206.327,135.400 206.800 M133.245 211.327 C 132.165 213.075,128.126 216.908,126.451 217.774 C 125.722 218.151,125.220 218.553,125.335 218.668 C 125.991 219.324,132.220 213.805,133.723 211.235 C 134.695 209.572,134.280 209.652,133.245 211.327 M99.879 213.400 C 101.255 215.359,106.164 219.170,106.665 218.668 C 106.780 218.553,106.321 218.173,105.645 217.823 C 104.969 217.474,103.206 216.066,101.726 214.694 C 100.140 213.223,99.382 212.692,99.879 213.400 M109.600 220.000 C 109.930 220.213,110.560 220.378,111.000 220.366 L 111.800 220.344 111.000 220.000 C 109.804 219.486,108.805 219.486,109.600 220.000 M121.000 220.000 L 120.200 220.344 121.000 220.366 C 121.440 220.378,122.070 220.213,122.400 220.000 C 123.195 219.486,122.196 219.486,121.000 220.000 M114.100 220.915 C 115.271 221.144,116.729 221.144,117.900 220.915 C 119.619 220.578,119.437 220.543,116.000 220.543 C 112.563 220.543,112.381 220.578,114.100 220.915 M162.200 297.167 C 162.200 329.488,162.335 356.068,162.500 356.233 C 162.665 356.398,162.800 350.743,162.800 343.667 L 162.800 330.800 170.000 330.800 L 177.200 330.800 177.200 333.386 C 177.200 336.841,175.707 336.629,198.400 336.400 L 218.200 336.200 218.200 298.400 L 218.200 260.600 215.400 260.400 L 212.600 260.200 212.600 252.600 L 212.600 245.000 224.752 244.894 C 233.506 244.818,237.060 244.918,237.462 245.251 C 238.048 245.738,238.752 245.417,238.231 244.900 C 238.065 244.735,224.310 244.600,207.665 244.600 L 177.400 244.600 177.400 241.500 L 177.400 238.399 169.800 238.400 L 162.200 238.401 162.200 297.167 M238.235 259.900 C 238.071 260.065,236.556 260.290,234.868 260.400 L 231.800 260.600 231.600 304.800 L 231.400 349.000 204.838 349.103 C 174.599 349.220,177.197 348.839,177.206 353.149 C 177.210 355.267,177.331 356.016,177.600 355.600 C 177.813 355.270,177.991 353.876,177.994 352.503 L 178.000 350.006 204.900 349.903 L 231.800 349.800 232.000 305.400 L 232.200 261.000 235.065 260.883 C 236.969 260.806,238.092 260.571,238.414 260.183 C 238.911 259.585,238.770 259.362,238.235 259.900 M217.800 298.400 L 217.800 335.800 198.000 335.800 L 178.200 335.800 177.888 333.000 C 177.220 327.009,177.137 325.103,177.527 324.713 C 177.775 324.465,183.274 324.293,192.063 324.257 L 206.200 324.200 206.302 292.489 L 206.405 260.778 212.102 260.889 L 217.800 261.000 217.800 298.400 " stroke="none" fill="#77869c" fill-rule="evenodd"></path></g></svg>