<svg width="384" height="19" viewBox="0 0 384 19" fill="none" xmlns="http://www.w3.org/2000/svg">
<path fill-rule="evenodd" clip-rule="evenodd" d="M68.2684 7.11577C64.0761 7.89979 60.1415 9.03487 56.5933 10.6263C56.2069 10.8018 56.0897 11.0475 56.0546 11.1528C55.996 11.3401 56.0195 11.5157 56.1132 11.6795C56.1717 11.7848 56.2655 11.9136 56.4645 11.9955C56.605 12.054 56.968 12.1007 57.4481 12.089C58.2679 12.0773 59.5326 11.9838 60.1416 11.9838C62.226 12.0072 64.3104 11.9954 66.3948 12.0305C73.0345 12.1475 74.1938 12.2411 82.7305 12.1709C92.6959 12.089 102.685 11.9486 112.662 11.7379C80.9506 13.4932 49.2861 15.541 17.7855 17.4484C17.4342 17.4718 17.1649 17.7762 17.1883 18.1272C17.2 18.49 17.5161 18.7591 17.8675 18.7357C91.3727 14.289 165.686 9.04655 239.753 8.7072C243.407 8.78911 247.049 8.87098 250.679 8.95289C272.612 9.46777 294.557 10.088 316.467 11.0476C323.599 11.3635 330.73 11.7145 337.873 12.0422C339.981 12.1358 342.101 12.2294 344.22 12.323C345.93 12.3932 350.333 12.6507 350.954 12.6624C351.516 12.6741 351.656 12.171 351.668 12.1476C351.703 11.9838 351.68 11.7965 351.539 11.6209C351.504 11.5741 351.41 11.4455 351.2 11.387C351.165 11.387 351.001 11.3635 350.661 11.3284C333.049 9.88907 315.39 8.89442 297.696 8.26253C300.073 8.28593 302.45 8.29769 304.827 8.32109C323.154 8.46151 341.527 8.96469 359.842 8.32109C364.011 8.18067 368.191 8.01678 372.348 7.81785C375.147 7.68913 382.349 7.85298 383.368 7.54873C383.836 7.42001 383.941 7.09233 383.953 6.9285C383.965 6.74128 383.93 6.53064 383.719 6.34341C383.625 6.2498 383.333 6.09775 382.782 5.98073C364.807 2.08403 343.775 3.18392 325.472 2.09565C275.762 -0.888306 226.228 1.10109 176.53 2.91487C133.635 4.48291 90.7403 4.5648 47.8691 6.69453C32.1774 7.46684 15.9939 6.57756 0.524651 9.52641C0.173344 9.59662 -0.0492252 9.92415 0.00932604 10.2752C0.0795875 10.6263 0.419213 10.8604 0.770521 10.7902C16.1695 7.853 32.2945 8.75401 47.9277 7.9817C54.7079 7.64234 61.4882 7.36151 68.2684 7.11577ZM200.887 7.9817C174.621 7.57213 148.355 7.36145 122.065 7.49017C104.032 7.57208 77.7538 4.14358 59.8371 10.6966C59.9659 10.6966 60.0712 10.6966 60.1649 10.6966C62.2493 10.72 64.3338 10.6965 66.4182 10.7433C73.0462 10.8603 74.2055 10.9539 82.7188 10.8837C104.488 10.6965 126.316 10.2285 148.074 9.50299C165.698 8.9179 183.298 8.39126 200.887 7.9817ZM378.566 6.47212C361.575 3.49986 342.312 4.38932 325.39 3.38297C275.727 0.399007 226.228 2.38826 176.576 4.20204C154.386 5.02116 132.206 5.4307 110.039 5.93388C114.29 6.0977 118.353 6.2147 122.065 6.203C159.644 6.01577 197.21 6.51903 234.788 7.31476C258.127 6.9637 281.465 6.83498 304.839 7.02221C323.154 7.17433 341.492 7.66582 359.807 7.03392C363.964 6.8935 368.133 6.72961 372.29 6.53068C373.707 6.47217 376.271 6.48382 378.566 6.47212Z" fill="black"/>
</svg>
